# xmcd CD database file
#
# Track frame offsets:
#	150
#	38779
#	70354
#	96359
#	131161
#	154062
#
# Disc length: 2433 seconds
#
# Revision: 0
# Processed by: cddbd v1.5.1PL2 Copyright (c) Steve Scherf et al.
# Submitted via: CDex 1.51
#
DISCID=51097f06
DTITLE=Romantic Delights - Romantic Jazz
DYEAR=2005
DGENRE=Jazz
TTITLE0=The Breeze And I
TTITLE1=Missing You Blues
TTITLE2=In The Evening
TTITLE3=Danny Boy
TTITLE4=Dark Eyes
TTITLE5=Let Me Call You Sweetheart
EXTD=YEAR: 2005
EXTT0=
EXTT1=
EXTT2=
EXTT3=
EXTT4=
EXTT5=
PLAYORDER=
